# xmcd
#
# Track frame offsets:
#	150
#	14184
#	28404
#	43248
#	57047
#	70372
#	86498
#	100836
#	114794
#	127387
#	141112
#	154805
#	170240
#	183559
#	196852
#	210840
#	224112
#	237029
#	251394
#	265285
#
# Disc length: 3733 seconds
#
# Revision: 0
# Processed by: cddbd v1.5.2PL0 Copyright (c) Steve Scherf et al.
# Submitted via: FairStars CD Ripper 1.80
#
DISCID=300e9314
DTITLE=Various Artist - the Melotone Blues Story cd1
DYEAR=2015
DGENRE=Blues
TTITLE0=Blind Boy Fuller - Rag, Mama, Rag
TTITLE1=Big Bill Broonzy - Bricks In My Pillow
TTITLE2=Rev. Blind Gary Davis - The Great Change In Me
TTITLE3=Josh White - Good Gal
TTITLE4=Lucille Bogan (Bessie Jackson) - Changed Ways Blues
TTITLE5=Washboard Sam - I'm A Prowlin' Groundhog
TTITLE6=Peetie Wheatstraw - Remember And Forget Blues
TTITLE7=Sam Montgomery - Honey Dripper
TTITLE8=Mississippi Jook Band - Skippy Whippy
TTITLE9=Floyd 'Dipper Boy' Council - Working Man Blues
TTITLE10=Big Bill Broonzy - Match Box Blues
TTITLE11=Lil Johnson and Black Bob - Take It Easy Greasy
TTITLE12=Kid Prince Moore - Sign Of Judgement
TTITLE13=Walter Roland - 45. Pistol Blues
TTITLE14=Josh White - Did You Read That Letter
TTITLE15=George Noble - If You Lose Your Good Gal
TTITLE16=Charley Jordan - Don't Put Your Dirty Hands On Me 
TTITLE17=Buddy Moss - Undertaker Blues
TTITLE18=Blind Boy Fuller - Evil Hearted Woman
TTITLE19=Leadbelly - Pig Meat Papa
EXTD=
EXTT0=
EXTT1=
EXTT2=
EXTT3=
EXTT4=
EXTT5=
EXTT6=
EXTT7=
EXTT8=
EXTT9=
EXTT10=
EXTT11=
EXTT12=
EXTT13=
EXTT14=
EXTT15=
EXTT16=
EXTT17=
EXTT18=
EXTT19=
PLAYORDER=
